#N canvas 356 140 722 766 10;
#X obj 100 30 bng 15 250 50 0 empty empty empty 0 -6 0 8 -262144 -1
-1;
#X obj 21 13 TuioClient;
#X obj 148 85 route addObject removeObject updateObject;
#X obj 148 123 unpack \$1 \$2;
#X obj 242 123 unpack \$1 \$2;
#X text 158 46 see the help patch for the TuioClient for more info
;
#X obj 451 173 * 480;
#X obj 498 173 * 360;
#X obj 498 142 / 6.28;
#X floatatom 397 204 5 0 0 0 - - -;
#X floatatom 451 204 5 0 0 0 - - -;
#X floatatom 498 204 5 0 0 0 - - -;
#X text 447 228 y-axis;
#X text 392 227 x-axis;
#X text 500 228 angle;
#X obj 397 173 * 640;
#X obj 336 125 unpack \$1 \$2 \$3 \$4 \$5;
#X text 157 13 simple example patch showing how to receive and unpack
the TUIO event messages;
#X obj 89 282 unpack \$1 \$2;
#X obj 183 282 unpack \$1 \$2;
#X obj 382 337 * 480;
#X floatatom 328 368 5 0 0 0 - - -;
#X floatatom 382 368 5 0 0 0 - - -;
#X text 378 392 y-axis;
#X text 323 391 x-axis;
#X obj 328 337 * 640;
#X obj 89 244 route addCursor removeCursor updateCursor;
#X obj 277 284 unpack \$1 \$2 \$3 \$4;
#X obj 150 154 print addObject;
#X obj 251 155 print removeObject;
#X obj 90 314 print addCursor;
#X obj 191 316 print removeCursor;
#X obj 21 450 unpack \$1 \$2;
#X obj 115 450 unpack \$1 \$2;
#X obj 314 560 * 480;
#X floatatom 260 591 5 0 0 0 - - -;
#X floatatom 314 591 5 0 0 0 - - -;
#X text 310 615 y-axis;
#X text 255 614 x-axis;
#X obj 260 560 * 640;
#X obj 209 452 unpack \$1 \$2 \$3 \$4;
#X obj 21 412 route addBlob removeBlob updateBlob;
#X obj 123 484 print removeBlob;
#X obj 367 560 * 360;
#X obj 367 529 / 6.28;
#X floatatom 367 591 5 0 0 0 - - -;
#X text 369 615 angle;
#X obj 22 482 print addBlob;
#X obj 498 562 * 480;
#X floatatom 444 593 5 0 0 0 - - -;
#X floatatom 498 593 5 0 0 0 - - -;
#X obj 444 562 * 640;
#X floatatom 551 593 5 0 0 0 - - -;
#X text 439 616 width;
#X text 493 617 height;
#X text 553 617 area;
#N canvas 1033 265 572 329 midi 0;
#X obj 124 -233 inlet;
#X obj 126 -33 noteout;
#X obj 402 -243 loadbang;
#X obj 126 -111 metro;
#X obj 126 -59 makenote;
#X floatatom 210 -128 0 0 0 0 - - -;
#X obj 126 -85 f;
#X floatatom 175 -129 0 0 0 0 - - -;
#X floatatom 263 -129 0 0 0 0 - - -;
#X floatatom 332 -129 0 0 0 0 - - -;
#X msg 402 -208 500;
#X msg 434 -208 60;
#X msg 463 -208 64;
#X msg 491 -208 250;
#X text 171 -262 rate;
#X text 214 -262 pitch;
#X text 259 -262 vel;
#X text 295 -261 length;
#X obj 260 -38 ctlout 1;
#X floatatom 260 -67 0 0 0 0 - - -;
#X obj 174 -177 r x;
#X obj 330 -174 r y;
#X obj 262 -177 r angle;
#X obj 214 -179 r area;
#X obj 125 -171 bng 15 250 50 0 empty empty empty 17 7 0 10 -262144
-1 -1;
#X obj 333 -101 / 5;
#X connect 0 0 24 0;
#X connect 2 0 10 0;
#X connect 2 0 11 0;
#X connect 2 0 12 0;
#X connect 2 0 13 0;
#X connect 3 0 6 0;
#X connect 4 0 1 0;
#X connect 4 1 1 1;
#X connect 5 0 4 2;
#X connect 6 0 4 0;
#X connect 7 0 3 1;
#X connect 8 0 4 1;
#X connect 9 0 25 0;
#X connect 19 0 18 0;
#X connect 20 0 7 0;
#X connect 21 0 9 0;
#X connect 22 0 8 0;
#X connect 23 0 5 0;
#X connect 24 0 3 0;
#X connect 25 0 6 1;
#X restore 88 366 pd midi;
#X obj 258 644 s x;
#X obj 313 645 s y;
#X obj 368 646 s angle;
#X obj 549 643 s area;
#X obj 88 342 tgl 15 0 empty empty empty 17 7 0 10 -262144 -1 -1 5288
5288;
#X connect 1 0 2 0;
#X connect 1 0 26 0;
#X connect 1 0 41 0;
#X connect 1 1 0 0;
#X connect 2 0 3 0;
#X connect 2 1 4 0;
#X connect 2 2 16 0;
#X connect 3 1 28 0;
#X connect 4 1 29 0;
#X connect 6 0 10 0;
#X connect 7 0 11 0;
#X connect 8 0 7 0;
#X connect 15 0 9 0;
#X connect 16 2 15 0;
#X connect 16 3 6 0;
#X connect 16 4 8 0;
#X connect 18 0 61 0;
#X connect 18 1 30 0;
#X connect 19 1 31 0;
#X connect 20 0 22 0;
#X connect 25 0 21 0;
#X connect 26 0 18 0;
#X connect 26 1 19 0;
#X connect 26 2 27 0;
#X connect 27 2 25 0;
#X connect 27 3 20 0;
#X connect 32 1 47 0;
#X connect 33 1 42 0;
#X connect 34 0 36 0;
#X connect 35 0 57 0;
#X connect 36 0 58 0;
#X connect 39 0 35 0;
#X connect 40 2 39 0;
#X connect 40 3 34 0;
#X connect 40 3 44 0;
#X connect 40 3 51 0;
#X connect 40 3 48 0;
#X connect 40 3 52 0;
#X connect 41 0 32 0;
#X connect 41 1 33 0;
#X connect 41 2 40 0;
#X connect 43 0 45 0;
#X connect 44 0 43 0;
#X connect 45 0 59 0;
#X connect 48 0 50 0;
#X connect 51 0 49 0;
#X connect 52 0 60 0;
#X connect 61 0 56 0;
